<svg width="91" height="91" viewBox="0 0 91 91" fill="none" xmlns="http://www.w3.org/2000/svg">
<circle cx="45.5" cy="45.5" r="45.5" fill="#DB7805"/>
<circle cx="45.5" cy="45.5" r="40.5" fill="#F98500"/>
<circle cx="45.5" cy="45.5" r="36.5" fill="white"/>
<g clip-path="url(#clip0)">
<path d="M34.4746 61.7627H42.2712V64.8814H34.4746V61.7627Z" fill="#F98500"/>
<path d="M23.5593 61.7627H31.3559V64.8814H23.5593V61.7627Z" fill="#F98500"/>
<path d="M48.5084 61.7627H56.305V64.8814H48.5084V61.7627Z" fill="#F98500"/>
<path d="M59.4237 58.6441H67.2203V61.7627H59.4237V58.6441Z" fill="#F98500"/>
<path d="M34.4746 55.5254H42.2712V58.6441H34.4746V55.5254Z" fill="#F98500"/>
<path d="M23.5593 55.5254H31.3559V58.6441H23.5593V55.5254Z" fill="#F98500"/>
<path d="M32.9153 49.2881H40.7119V52.4068H32.9153V49.2881Z" fill="#F98500"/>
<path d="M46.9491 55.5254H54.7457V58.6441H46.9491V55.5254Z" fill="#F98500"/>
<path d="M59.4237 52.4068H67.2203V55.5254H59.4237V52.4068Z" fill="#F98500"/>
<path d="M59.4237 46.1695H67.2203V49.2881H59.4237V46.1695Z" fill="#F98500"/>
<path d="M59.4237 39.9322H67.2203V43.0508H59.4237V39.9322Z" fill="#F98500"/>
<path d="M46.9491 49.2881H54.7457V52.4068H46.9491V49.2881Z" fill="#F98500"/>
<path d="M36.0339 58.6441H43.8305V61.7627H36.0339V58.6441Z" fill="#FFB531"/>
<path d="M34.4746 52.4068H42.2712V55.5254H34.4746V52.4068Z" fill="#FFB531"/>
<path d="M59.4237 61.7627H67.2203V64.8814H59.4237V61.7627Z" fill="#FFB531"/>
<path d="M22 58.6441H29.7966V61.7627H22V58.6441Z" fill="#FFB531"/>
<path d="M46.9491 58.6441H54.7457V61.7627H46.9491V58.6441Z" fill="#FFB531"/>
<path d="M57.8644 55.5254H65.661V58.6441H57.8644V55.5254Z" fill="#FFB531"/>
<path d="M45.3898 52.4068H53.1864V55.5254H45.3898V52.4068Z" fill="#FFB531"/>
<path d="M59.4237 49.2881H67.2203V52.4068H59.4237V49.2881Z" fill="#FFB531"/>
<path d="M57.8644 43.0508H65.661V46.1695H57.8644V43.0508Z" fill="#FFB531"/>
<path d="M59.4237 36.8136H67.2203V39.9322H59.4237V36.8136Z" fill="#FFB531"/>
<path d="M45.3898 46.1695H53.1864V49.2881H45.3898V46.1695Z" fill="#FFB531"/>
<path d="M67.6578 22.134C67.4434 21.989 67.1709 21.9597 66.9303 22.056L63.0319 23.6153L63.6121 25.0638L65.3203 24.3801L60.8997 31.5642L58.4731 28.5304C58.3228 28.3332 58.0841 28.2236 57.8362 28.2373C57.5896 28.2461 57.3619 28.3713 57.2218 28.575L49.137 40.3354L44.338 36.2216C44.1788 36.0849 43.971 36.0183 43.762 36.037C43.5526 36.0556 43.36 36.1576 43.2271 36.3198L36.7995 44.175L32.7272 39.4255C32.5624 39.2329 32.3141 39.1328 32.0621 39.1567C31.8097 39.1803 31.5847 39.3254 31.4587 39.5454L25.2214 50.4607L26.5752 51.2343L32.2666 41.2803L36.225 45.8965C36.3777 46.0679 36.5958 46.1672 36.8254 46.1695C37.0561 46.1668 37.2738 46.0621 37.42 45.8832L43.9318 37.9244L48.7837 42.0831C48.9516 42.227 49.1728 42.2929 49.3921 42.2643C49.6117 42.2358 49.8085 42.1151 49.9338 41.9328L57.912 30.3243L60.3743 33.4026C60.5346 33.5982 60.7786 33.7063 61.0314 33.6934C61.2846 33.6778 61.5145 33.54 61.6474 33.3238L66.4407 25.534V27.4576H68V22.7797C68 22.5208 67.8717 22.2791 67.6578 22.134Z" fill="#7EB457"/>
<path d="M22 64.8814H67.2203V68H22V64.8814Z" fill="#B0564C"/>
</g>
<defs>
<clipPath id="clip0">
<rect width="46" height="46" fill="white" transform="translate(22 22)"/>
</clipPath>
</defs>
</svg>
