<svg xmlns="http://www.w3.org/2000/svg" viewBox="0 0 428.41 258.09"><defs><style>.cls-1{fill:#fff;}.cls-2{fill:#004689;}.cls-3{fill:#fcaf17;}</style></defs><title>vnpost_logo</title><g id="Layer_2" data-name="Layer 2"><g id="Layer_1-2" data-name="Layer 1"><rect class="cls-1" width="428.41" height="258.09"/><polygon class="cls-2" points="43.94 193 49.55 193 58.12 208.29 66.28 193 71.19 193 59.55 214.15 56.15 214.15 43.94 193"/><rect class="cls-2" x="77.44" y="193" width="4.91" height="21.15"/><polygon class="cls-2" points="91.51 193 113.14 193 113.14 196.61 96.41 196.61 96.41 201.32 106.17 201.32 106.17 204.93 96.41 204.93 96.41 210.17 113.34 210.17 113.34 214.15 91.51 214.15 91.51 193"/><polygon class="cls-2" points="131.85 214.15 126.94 214.15 126.94 196.77 117.23 196.77 117.23 193 141.62 193 141.62 196.77 131.85 196.77 131.85 214.15"/><path class="cls-2" d="M147.17,193h3.37l14.87,12.46a17.53,17.53,0,0,1,2.42,2.3c-.12-1.77-.2-3-.2-3.65V193h4.42v21.15h-3.36l-15.52-13.08a15.06,15.06,0,0,1-1.77-1.72,33,33,0,0,1,.2,3.37v11.43h-4.43Z"/><path class="cls-2" d="M197.08,205.71l-4.54-8.61-4.71,8.61ZM190.32,193h4.75l12.13,21.15h-5.52l-2.54-4.64H185.73l-2.45,4.64h-4.93Z"/><path class="cls-2" d="M213.54,193h4l10,12.79L237.24,193h3.94v21.15h-4.56V201.07c0-.4,0-1.15.16-2.25a14.78,14.78,0,0,1-1.23,2.22l-8,10.57h-1L218.68,201a9.1,9.1,0,0,1-1.27-2.17c.08.86.11,1.56.11,2.25v13.08h-4Z"/><path class="cls-2" d="M271.4,196.65v5.62h11.06c1.52,0,2.21-.29,2.21-1.69v-2.25c0-1.39-.69-1.68-2.21-1.68ZM266.57,193h18.1c3.24,0,4.77,1.14,4.77,4.1v4.71c0,3-1.53,4.1-4.77,4.1H271.4v8.24h-4.83Z"/><path class="cls-2" d="M317.29,196.77H301.05v13.4h16.24ZM301.39,193H317c4,0,5.24,1,5.24,5v11.15c0,4-1.27,5-5.24,5H301.39c-4,0-5.25-1-5.25-5V198c0-4,1.27-5,5.25-5"/><path class="cls-2" d="M336.62,196.69v4.55h13.19c4,0,5.29,1,5.29,5v2.91c0,4-1.31,5-5.29,5H336.74c-4,0-5.29-1-5.29-5v-.72h4.35v1.74h15v-4.83h-13.2c-4,0-5.23-1-5.23-5V198c0-4,1.25-5,5.23-5h12c3.77,0,5.25,1,5.25,4.64v.5h-4.35v-1.45Z"/><polygon class="cls-2" points="374.72 214.15 369.8 214.15 369.8 196.77 360.09 196.77 360.09 193 384.47 193 384.47 196.77 374.72 196.77 374.72 214.15"/><path class="cls-3" d="M187.35,120.79h99.08l12.34-13.72H199.7l-12.35,13.72"/><path class="cls-3" d="M205.87,100.22h99.05L317.27,86.5H218.2l-12.33,13.72"/><path class="cls-3" d="M224.37,79.65h99.05l12.35-13.71h-99c-3.76,4.19-8,8.85-12.35,13.71"/><path class="cls-3" d="M349.76,43.94H261a10.12,10.12,0,0,0-7.6,3.51S249.24,52,242.88,59.09h99l9.78-10.87a2.48,2.48,0,0,0,.62-1.64,2.68,2.68,0,0,0-2.56-2.64"/><path class="cls-3" d="M160.51,147.5a2,2,0,0,1-2,2,2,2,0,0,1-1.13-.35l-47.65-31.66a1.93,1.93,0,0,1-.74-1.54,2,2,0,0,1,2-2h47.55a2,2,0,0,1,2,2Zm20.06-19.86,0-12.18a5.49,5.49,0,0,0-2.24-4.45L131,79.59a5.49,5.49,0,0,0-6.2,0L77.41,111.07a5.49,5.49,0,0,0-2.21,4.38A5.69,5.69,0,0,0,77.45,120l73.45,49.25a13.24,13.24,0,0,0,7.2,2.33h75.61a16.16,16.16,0,0,0,11.54-5l35-38.93Z"/></g></g></svg>