<svg xmlns="http://www.w3.org/2000/svg" viewBox="0 0 428.41 258.09">
    <defs>
        <style>.cls-1{fill:#fff;}.cls-2{fill:#004689;}.cls-3{fill:#FFFFFF;}</style>
    </defs>
    <title>vnpost_logo</title>
    <g id="Layer_2" data-name="Layer 2">
        <g id="Layer_1-2" data-name="Layer 1">
            <path class="cls-3" d="M187.35,120.79h99.08l12.34-13.72H199.7l-12.35,13.72"/>
            <path class="cls-3" d="M205.87,100.22h99.05L317.27,86.5H218.2l-12.33,13.72"/>
            <path class="cls-3" d="M224.37,79.65h99.05l12.35-13.71h-99c-3.76,4.19-8,8.85-12.35,13.71"/>
            <path class="cls-3"
                  d="M349.76,43.94H261a10.12,10.12,0,0,0-7.6,3.51S249.24,52,242.88,59.09h99l9.78-10.87a2.48,2.48,0,0,0,.62-1.64,2.68,2.68,0,0,0-2.56-2.64"/>
            <path class="cls-3"
                  d="M160.51,147.5a2,2,0,0,1-2,2,2,2,0,0,1-1.13-.35l-47.65-31.66a1.93,1.93,0,0,1-.74-1.54,2,2,0,0,1,2-2h47.55a2,2,0,0,1,2,2Zm20.06-19.86,0-12.18a5.49,5.49,0,0,0-2.24-4.45L131,79.59a5.49,5.49,0,0,0-6.2,0L77.41,111.07a5.49,5.49,0,0,0-2.21,4.38A5.69,5.69,0,0,0,77.45,120l73.45,49.25a13.24,13.24,0,0,0,7.2,2.33h75.61a16.16,16.16,0,0,0,11.54-5l35-38.93Z"/>
        </g>
    </g>
</svg>
